<?xml version="1.0" encoding="UTF-8"?>
<!-- Generator: Adobe Illustrator 17.0.0, SVG Export Plug-In . SVG Version: 6.00 Build 0)  -->
<svg width="73" height="46.942" enable-background="new 0 0 90 90" version="1.1" viewBox="0 0 73 46.942" xml:space="preserve" xmlns="http://www.w3.org/2000/svg" xmlns:cc="http://creativecommons.org/ns#" xmlns:dc="http://purl.org/dc/elements/1.1/" xmlns:rdf="http://www.w3.org/1999/02/22-rdf-syntax-ns#" xmlns:xlink="http://www.w3.org/1999/xlink"><metadata><rdf:RDF><cc:Work rdf:about=""><dc:format>image/svg+xml</dc:format><dc:type rdf:resource="http://purl.org/dc/dcmitype/StillImage"/></cc:Work></rdf:RDF></metadata><g transform="translate(-8.5 -15.054)"><defs><rect id="SVGID_1_" width="90" height="90"/></defs><clipPath id="SVGID_2_"><use overflow="visible" xlink:href="#SVGID_1_"/></clipPath><path class="logo__item--light" d="m81.5 37.925-10.226-13.93h-6.8348l10.174 13.93-11.113 15.13h6.913l11.087-15.13" fill="#333" stroke-width=".26087"/><g stroke-width=".42138"><path class="logo__item--dark" d="m53.702 33.257 13.316-18.204h-11.04l-7.8377 10.661 5.5623 7.5428"/><path class="logo__item--light" d="m50.583 37.555-16.518-22.502h-11.04l16.434 22.502-17.951 24.44h11.167l17.909-24.44" fill="#176fc1"/><path class="logo__item--dark" d="m53.702 41.811-5.5623 7.5849 9.2283 12.599h11.125l-14.791-20.184"/></g><path class="logo__item--light" d="m8.5 37.37 10.226-13.93h6.8348l-10.174 13.93 11.113 15.13h-6.913l-11.087-15.13" fill="#333" stroke-width=".26087"/></g></svg>
