<?xml version="1.0" encoding="UTF-8"?>
<!DOCTYPE svg PUBLIC "-//W3C//DTD SVG 1.1//EN" "http://www.w3.org/Graphics/SVG/1.1/DTD/svg11.dtd">
<svg xmlns="http://www.w3.org/2000/svg" version="1.1" width="192px" height="192px" style="shape-rendering:geometricPrecision; text-rendering:geometricPrecision; image-rendering:optimizeQuality; fill-rule:evenodd; clip-rule:evenodd" xmlns:xlink="http://www.w3.org/1999/xlink">
<g><path style="opacity:0.931" fill="#176ec1" d="M 27.5,25.5 C 40.85,25.1675 54.1833,25.5008 67.5,26.5C 83.7465,49.3255 99.7465,72.3255 115.5,95.5C 99.5,118.5 83.5,141.5 67.5,164.5C 54.5171,165.499 41.5171,165.832 28.5,165.5C 28.4914,163.692 28.9914,162.025 30,160.5C 45.5355,139.263 60.7022,117.763 75.5,96C 60.7022,74.237 45.5355,52.737 30,31.5C 28.4412,29.7834 27.6079,27.7834 27.5,25.5 Z"/></g>
<g><path style="opacity:0.91" fill="#221f1f" d="M 124.5,25.5 C 137.5,25.5 150.5,25.5 163.5,25.5C 149.903,47.6936 135.07,69.0269 119,89.5C 111.89,80.7857 105.39,71.619 99.5,62C 107.714,49.7346 116.047,37.5679 124.5,25.5 Z"/></g>
<g><path style="opacity:0.909" fill="#2a2b2a" d="M 28.5,86.5 C 26.031,89.1438 23.6976,91.9772 21.5,95C 30.29,107.413 38.9566,119.913 47.5,132.5C 40.1893,133.665 32.856,133.831 25.5,133C 16.582,120.931 7.91535,108.764 -0.5,96.5C -0.5,95.8333 -0.5,95.1667 -0.5,94.5C 8.2676,82.4882 16.9343,70.3215 25.5,58C 32.856,57.1687 40.1893,57.3354 47.5,58.5C 40.6517,67.5447 34.3184,76.8781 28.5,86.5 Z"/></g>
<g><path style="opacity:0.909" fill="#2a2b2a" d="M 191.5,94.5 C 191.5,95.1667 191.5,95.8333 191.5,96.5C 182.732,108.512 174.066,120.679 165.5,133C 158.144,133.831 150.811,133.665 143.5,132.5C 151.973,120.194 160.639,108.028 169.5,96C 160.71,83.5872 152.043,71.0872 143.5,58.5C 150.811,57.3354 158.144,57.1687 165.5,58C 174.418,70.0691 183.085,82.2358 191.5,94.5 Z"/></g>
<g><path style="opacity:0.028" fill="#221f1f" d="M 28.5,86.5 C 29.1174,86.6107 29.6174,86.944 30,87.5C 30.6667,86.1667 31.6667,85.1667 33,84.5C 34.3509,84.4456 35.5176,84.9456 36.5,86C 35.3352,89.1601 33.3352,91.6601 30.5,93.5C 29.914,93.2907 29.414,92.9574 29,92.5C 28.5045,90.5273 28.3379,88.5273 28.5,86.5 Z"/></g>
<g><path style="opacity:0.004" fill="#221f1f" d="M 37.5,86.5 C 38.8333,87.1667 38.8333,87.1667 37.5,86.5 Z"/></g>
<g><path style="opacity:0.004" fill="#221f1f" d="M 39.5,86.5 C 40.525,86.8966 40.6917,87.5632 40,88.5C 39.5357,87.9056 39.369,87.2389 39.5,86.5 Z"/></g>
<g><path style="opacity:0.004" fill="#221f1f" d="M 41.5,86.5 C 42.8333,87.1667 42.8333,87.1667 41.5,86.5 Z"/></g>
<g><path style="opacity:0.004" fill="#221f1f" d="M 29.5,96.5 C 30.8333,97.1667 30.8333,97.1667 29.5,96.5 Z"/></g>
<g><path style="opacity:0.913" fill="#221f1f" d="M 118.5,101.5 C 119.496,101.414 120.329,101.748 121,102.5C 134.087,121.675 147.421,140.675 161,159.5C 162.559,161.217 163.392,163.217 163.5,165.5C 149.588,165.823 135.754,165.49 122,164.5C 114.267,152.944 106.767,141.277 99.5,129.5C 105.824,120.173 112.157,110.84 118.5,101.5 Z"/></g>
<g><path style="opacity:0.014" fill="#221f1f" d="M 31.5,106.5 C 34.2036,105.486 36.5369,106.319 38.5,109C 36.0369,108.78 33.7035,107.946 31.5,106.5 Z"/></g>
<g><path style="opacity:0.057" fill="#221f1f" d="M 142.5,110.5 C 145.428,111.637 145.762,112.97 143.5,114.5C 142.571,113.311 142.238,111.978 142.5,110.5 Z"/></g>
</svg>
