<?xml version="1.0" standalone="no"?>
<!DOCTYPE svg PUBLIC "-//W3C//DTD SVG 20010904//EN"
 "http://www.w3.org/TR/2001/REC-SVG-20010904/DTD/svg10.dtd">
<svg version="1.0" xmlns="http://www.w3.org/2000/svg"
 width="192.000000pt" height="192.000000pt" viewBox="0 0 192.000000 192.000000"
 preserveAspectRatio="xMidYMid meet">
<metadata>
Created by potrace 1.14, written by Peter Selinger 2001-2017
</metadata>
<g transform="translate(0.000000,192.000000) scale(0.100000,-0.100000)"
fill="#000000" stroke="none">
<path d="M296 1643 c-2 -3 81 -126 185 -274 104 -148 189 -273 189 -278 0 -5
3 -11 8 -13 7 -3 70 -88 85 -114 3 -5 -100 -161 -228 -345 -129 -183 -235
-337 -235 -340 0 -12 359 -7 374 5 24 19 470 660 470 676 0 9 -35 65 -78 125
-42 61 -140 200 -217 310 -76 110 -148 212 -160 227 l-21 28 -183 -1 c-101 -1
-186 -3 -189 -6z"/>
<path d="M1254 1641 c-5 -3 -34 -42 -64 -86 -30 -44 -58 -84 -63 -90 -4 -5
-33 -45 -63 -88 -53 -76 -54 -78 -39 -106 8 -16 20 -35 27 -43 7 -8 18 -21 23
-30 41 -66 119 -167 125 -163 4 3 68 90 141 195 74 105 169 240 212 300 42 61
77 112 77 115 0 7 -366 4 -376 -4z"/>
<path d="M281 1330 c-16 -4 -63 -63 -151 -190 -6 -8 -35 -50 -65 -93 -30 -42
-55 -82 -55 -87 0 -9 228 -339 251 -364 9 -10 209 -15 209 -5 0 3 -58 88 -129
189 l-130 184 28 35 c15 20 57 79 92 131 36 52 82 119 103 148 21 28 36 52 34
53 -14 4 -171 3 -187 -1z"/>
<path d="M1455 1323 c4 -13 139 -208 207 -300 21 -29 38 -58 38 -66 0 -7 -17
-36 -37 -64 -21 -28 -44 -59 -50 -70 -7 -10 -46 -65 -87 -123 -41 -58 -70
-107 -66 -110 14 -9 192 -2 200 7 22 25 250 356 250 363 0 5 -41 66 -90 137
-50 70 -106 152 -126 181 -20 28 -39 52 -42 53 -4 0 -51 2 -105 2 -73 2 -96
-1 -92 -10z"/>
<path d="M1102 759 c-60 -85 -91 -138 -87 -148 3 -9 54 -89 113 -178 l107
-161 198 1 c108 0 197 2 197 4 0 5 -98 147 -144 210 -17 23 -87 123 -156 222
-69 99 -127 180 -130 181 -3 0 -47 -59 -98 -131z"/>
</g>
</svg>
